<?xml version="1.0" encoding="UTF-8"?>
<svg width="26px" height="24px" viewBox="0 0 26 24" version="1.1" xmlns="http://www.w3.org/2000/svg" xmlns:xlink="http://www.w3.org/1999/xlink">
    <title>tongzhi</title>
    <g id="页面-1" stroke="none" stroke-width="1" fill="none" fill-rule="evenodd">
        <g id="首页-已登陆" transform="translate(-30.000000, -430.000000)" fill="#33374D" fill-rule="nonzero">
            <g id="tongzhi" transform="translate(29.999991, 430.000000)">
                <path d="M14.331952,0.114479894 C13.9257642,-0.0847483664 13.4416853,-0.0201722486 13.1001164,0.27880674 L6.46715577,6.02351949 L1.17973852,6.00141704 L1.1778434,6.00141704 C0.871575636,6.00190966 0.578453586,6.12767786 0.364831935,6.35025121 C0.146164173,6.57695254 0.0240074508,6.8816625 0.0246558079,7.19879275 L9.47738579e-06,16.7950961 C-0.00123148319,17.1121723 0.119438749,17.4172554 0.336404952,17.6455596 C0.550305453,17.8705028 0.845066567,17.9977745 1.15320669,17.9982377 L6.50411084,17.9982377 L13.1048543,23.7218089 C13.4466246,24.0204678 13.9306861,24.084664 14.3366898,23.8851748 C14.7451144,23.6819785 15.0028468,23.2596633 15.0000095,22.7983113 L15.0000095,1.20038245 C15.0022543,0.739441497 14.7446461,0.317703041 14.3366898,0.114479894 L14.331952,0.114479894 Z M18.7190433,6.11074586 C18.4298723,5.97875571 18.0979371,5.96413881 17.7975102,6.07016577 C17.4970833,6.17619274 17.2532435,6.39401275 17.1205516,6.67488717 C16.8329509,7.26568424 17.0766423,7.97030404 17.674297,8.27601054 C18.9507223,9.05828898 19.6778522,10.4545914 19.5665925,11.9097725 C19.5665925,14.7525834 17.8685063,15.6944207 17.8117374,15.7251746 C17.2092247,16.0321326 16.9687661,16.7456955 17.2689474,17.3359085 C17.4691495,17.7400672 17.8913087,17.9980817 18.3555234,18 C18.5435922,18 18.7289735,17.956912 18.8963215,17.8741013 C19.0228066,17.8106714 21.9907227,16.2902769 21.9907227,11.9097725 C22.121855,9.53557246 20.8559973,7.29253227 18.7180474,6.11074586 L18.7190433,6.11074586 Z M21.7990141,3.18397683 C21.538651,3.01697032 21.2212306,2.96057302 20.9183173,3.02750004 C20.6154041,3.09442706 20.3524981,3.27904425 20.1888732,3.53972859 C19.8388104,4.08857115 19.9886304,4.81257949 20.52861,5.18151338 C20.6556504,5.26617088 23.6574613,7.33980406 23.6574613,12.5001068 C23.6574614,17.6604096 20.7778787,19.7483109 20.6633499,19.8244075 C20.1226432,20.1966944 19.9786399,20.9260026 20.3380494,21.4718995 C20.5060943,21.7325699 20.7739138,21.914743 21.080282,21.9767724 C21.3866503,22.0388019 21.7053737,21.9753843 21.9635892,21.8010175 C22.1281643,21.6897262 26.0000095,18.998759 26.0000095,12.496302 C26.0000095,5.99384492 21.9703262,3.29241453 21.7990141,3.18112319 L21.7990141,3.18397683 Z" id="形状"></path>
            </g>
        </g>
    </g>
</svg>